<svg viewBox="0 6.012 128 128" width="128" height="128" xmlns="http://www.w3.org/2000/svg">
  <ellipse style="stroke: rgb(0, 0, 0); fill: rgb(255, 255, 255);" cx="64" cy="70.012" rx="64" ry="64"/>
  <path d="M 64 6.012 C 28.7 6.012 0 34.712 0 70.012 C 0 105.312 28.7 134.012 64 134.012 C 75.2 134.012 85.7 131.112 94.8 126.112 L 48.4 61.312 L 48.4 97.912 L 41.6 97.912 L 41.6 47.812 L 48.4 47.812 L 98.9 123.612 C 116.4 112.212 128 92.512 128 70.012 C 128 34.712 99.3 6.012 64 6.012 Z M 86.1 90.612 L 78.6 79.312 L 78.6 47.812 L 86.1 47.812 L 86.1 90.612 Z" style=""/>
</svg>
